<svg xmlns="http://www.w3.org/2000/svg" width="163.839" height="163.839" fill-rule="evenodd" clip-rule="evenodd" image-rendering="optimizeQuality" shape-rendering="geometricPrecision" text-rendering="geometricPrecision" viewBox="0 0 1707 1707" id="grow"><path fill="#666" fill-rule="nonzero" d="M630 550c-10-4-4-13-1-23 4-11 3-18 14-15 0 0 31 10 212 158 61 50 94 92 112 126 40-106 100-278 91-346-1-11 7-21 18-23 11-1 21 7 22 18 12 91-80 331-115 420-4 27-19 41-19 41-8 7-21 7-28-1-6-6-7-15-4-22 1-1 6-13 13-32-1-26-21-73-116-150-175-144-199-151-199-151zM635 1078l621 0c11 0 20 9 20 20 0 3 0 5-1 7l-115 472c-2 9-11 15-20 15l0 0-390 0c-10 0-18-7-19-17l-116-472c-2-11 4-22 15-24 1 0 3-1 5-1l0 0zm596 40l-571 0 106 434 359 0 106-434z"></path><path fill="#666" fill-rule="nonzero" d="M625 1078l651 0 0 -53 -651 0 0 53zm671 40l-691 0c-11,0 -20,-9 -20,-20l0 -93c0,-12 9,-20 20,-20l691 0c11,0 20,8 20,20l0 93c0,11 -9,20 -20,20z"></path><path fill="#666" fill-rule="nonzero" d="M632 871l637 0c21 0 40 9 54 23 14 13 22 33 22 54l0 57c0 11-9 20-20 20l-750 0c-11 0-20-9-20-20l0-57c0-21 9-41 23-54 14-14 33-23 54-23zm637 40l-637 0c-10 0-19 4-26 11-7 7-11 16-11 26l0 37 710 0 0-37c0-10-4-19-10-26-7-7-16-11-26-11zM735 1490c11 0 20 9 20 20 0 11-9 20-20 20l-145 0 0 68c0 21 6 39 15 51 7 11 17 18 27 18l627 0c10 0 19-7 27-18 9-12 14-30 14-51l0-68-144 0c-11 0-20-9-20-20 0-11 9-20 20-20l164 0c11 0 20 9 20 20l0 88c0 29-8 55-21 74-15 21-36 35-60 35l-627 0c-24 0-45-14-60-35-13-19-22-45-22-74l0-88c0-11 9-20 20-20l165 0zM1165 759c-2-10-6-20-11-30 0 0 0 0 0-1-8-12-18-22-31-30l0 0 0 0c-13-7-28-11-42-11l0 0c-11 0-21 2-31 6 1 11 5 21 10 30 7 13 18 24 31 31 13 8 28 11 42 11l0 0c11 0 22-2 32-6zm24-50c10 19 16 41 16 62l0 0c0 7-3 14-10 18-19 11-40 16-62 16l0 0c-21 0-42-5-62-16-19-12-35-27-45-46-11-18-17-39-17-61 0-7 3-14 10-18 19-11 40-17 62-17l0 0c21 0 43 6 62 17l0 0c19 11 34 26 45 44 0 0 0 1 1 1zM825 702c-11-1-21 0-32 3-14 3-27 11-37 21l0 1c-11 10-19 23-22 37-3 11-4 21-3 32 11 1 22 0 32-2 14-4 27-11 38-22 11-11 18-24 22-38 3-10 3-21 2-32zm-42-36c21-5 43-6 64 0 7 2 12 7 14 14 6 21 6 44 0 65-5 20-16 39-32 55-16 16-35 27-55 32-21 6-43 6-64 1-7-2-13-7-15-15-5-21-5-43 0-64 6-21 16-40 32-56l0 0 0 0c16-16 36-26 56-32z"></path><path fill="#ffb300" d="M1133 344l0 0zm-23 -86l0 0zm-86 23c-8,15 -10,32 -6,48 4,15 14,29 29,38 15,9 33,11 48,6 16,-4 30,-14 38,-29 9,-15 11,-32 7,-48 -5,-15 -15,-29 -30,-38 -15,-9 -32,-10 -47,-6 -16,4 -30,14 -39,29z"></path><path fill="#ffb300" d="M900 423l0 0zm346 202l0 0zm-335-625l0 0zm-39 107c1 32 10 65 28 95 2 4 4 7 7 11-5 0-9 0-14 0-34 0-67 8-95 23-30 15-55 38-73 65-5 7-5 16 0 23 18 27 43 49 73 65 28 15 61 23 95 23 5 0 9 0 14 0-3 4-5 8-7 11l0 0c-18 30-27 63-28 95-1 33 6 65 20 95 3 7 11 13 19 12 33-2 65-13 93-31 15-9 28-20 40-32 10-11 20-24 28-38l0-1c3-4 5-8 7-12 2 4 4 8 6 11l0 1c2 3 4 6 6 9 16 26 38 47 62 62 28 18 60 29 93 31 8 1 16-4 20-11 14-30 21-63 20-96-2-32-10-64-27-93l-1-2c-2-3-4-7-7-11 5 0 9 0 14 0 34 0 66-8 95-23 29-15 54-38 73-65 5-7 5-16 0-23-18-27-44-49-73-65-29-15-61-23-95-23-5 0-9 0-14 0 2-3 4-7 6-10l1-1c17-30 26-63 28-95 1-33-6-65-20-95-3-7-11-13-20-12-33 3-65 13-93 31-27 17-50 40-67 70l-1 1c-2 4-4 8-6 12-2-4-4-8-6-11l-1-1c-17-30-40-54-68-71-28-18-60-28-93-31-8 0-15 4-19 11-14 30-21 63-20 96zm258 116l0 0zm38 141l0 0zm-178-103c14-25 37-41 62-48 26-7 54-4 78 10l0 0c25 15 41 37 48 63 7 25 4 53-10 78l0 0c-14 25-37 41-63 48-25 7-53 4-78-10-24-15-41-37-48-63-6-25-3-53 11-78zM592 469c-15-56-99-32-84 23 14 56 99 33 84-23z"></path><path fill="#ffb300" d="M678 726l0 0zm14 -162l0 0zm134 -72l0 0zm-405 -256l0 0zm-19 11c-23,49 -21,105 7,152 -81,0 -153,67 -135,93 30,45 80,71 135,70 -40,69 -20,166 12,164 54,-4 102,-35 129,-82 27,47 75,78 128,82 8,0 16,-4 20,-11 16,-35 20,-74 10,-111 -3,-14 -9,-27 -16,-40l-1 -2c8,0 17,0 25,-1 45,-7 85,-31 110,-69 5,-6 5,-15 0,-22 -30,-45 -80,-71 -135,-71 27,-46 30,-103 7,-151 -3,-8 -11,-13 -20,-12 -53,4 -101,34 -128,82 -27,-48 -75,-78 -129,-82 -8,-1 -15,4 -19,11zm75 192c38,-64 135,-52 154,20 5,19 3,38 -4,54 -3,7 -6,13 -10,18 -11,15 -27,26 -45,31 -72,19 -132,-59 -95,-123z"></path></svg>